<mxfile host="app.diagrams.net" agent="Mozilla/5.0 (Windows NT 10.0; Win64; x64) AppleWebKit/537.36 (KHTML, like Gecko) Chrome/135.0.0.0 Safari/537.36" version="26.2.14">
  <diagram name="Página-1" id="UHEjD4CIThP37jHpbDp3">
    <mxGraphModel dx="3557" dy="1214" grid="1" gridSize="10" guides="1" tooltips="1" connect="1" arrows="1" fold="1" page="1" pageScale="1" pageWidth="827" pageHeight="1169" math="0" shadow="0">
      <root>
        <mxCell id="0" />
        <mxCell id="1" parent="0" />
        <mxCell id="4hDfL8p4R7ruTAoEIvOj-94" style="edgeStyle=orthogonalEdgeStyle;rounded=0;orthogonalLoop=1;jettySize=auto;html=1;entryX=0.5;entryY=0;entryDx=0;entryDy=0;" edge="1" parent="1" source="4hDfL8p4R7ruTAoEIvOj-1" target="4hDfL8p4R7ruTAoEIvOj-92">
          <mxGeometry relative="1" as="geometry" />
        </mxCell>
        <mxCell id="4hDfL8p4R7ruTAoEIvOj-1" value="INICIO" style="ellipse;whiteSpace=wrap;html=1;" vertex="1" parent="1">
          <mxGeometry x="355" width="120" height="50" as="geometry" />
        </mxCell>
        <mxCell id="4hDfL8p4R7ruTAoEIvOj-91" style="edgeStyle=orthogonalEdgeStyle;rounded=0;orthogonalLoop=1;jettySize=auto;html=1;entryX=0.5;entryY=0;entryDx=0;entryDy=0;" edge="1" parent="1" source="4hDfL8p4R7ruTAoEIvOj-2" target="4hDfL8p4R7ruTAoEIvOj-4">
          <mxGeometry relative="1" as="geometry" />
        </mxCell>
        <mxCell id="4hDfL8p4R7ruTAoEIvOj-2" value="Limpiar Pantalla" style="rounded=0;whiteSpace=wrap;html=1;" vertex="1" parent="1">
          <mxGeometry x="354" y="130" width="120" height="20" as="geometry" />
        </mxCell>
        <mxCell id="4hDfL8p4R7ruTAoEIvOj-6" style="edgeStyle=orthogonalEdgeStyle;rounded=0;orthogonalLoop=1;jettySize=auto;html=1;entryX=0.5;entryY=0;entryDx=0;entryDy=0;exitX=1;exitY=0.5;exitDx=0;exitDy=0;" edge="1" parent="1" source="4hDfL8p4R7ruTAoEIvOj-4" target="4hDfL8p4R7ruTAoEIvOj-5">
          <mxGeometry relative="1" as="geometry" />
        </mxCell>
        <mxCell id="4hDfL8p4R7ruTAoEIvOj-88" value="V" style="edgeLabel;html=1;align=center;verticalAlign=middle;resizable=0;points=[];" vertex="1" connectable="0" parent="4hDfL8p4R7ruTAoEIvOj-6">
          <mxGeometry x="-0.324" y="4" relative="1" as="geometry">
            <mxPoint as="offset" />
          </mxGeometry>
        </mxCell>
        <mxCell id="4hDfL8p4R7ruTAoEIvOj-70" style="edgeStyle=orthogonalEdgeStyle;rounded=0;orthogonalLoop=1;jettySize=auto;html=1;entryX=0.5;entryY=0;entryDx=0;entryDy=0;exitX=0;exitY=0.5;exitDx=0;exitDy=0;" edge="1" parent="1" source="4hDfL8p4R7ruTAoEIvOj-4" target="4hDfL8p4R7ruTAoEIvOj-8">
          <mxGeometry relative="1" as="geometry">
            <Array as="points">
              <mxPoint x="320" y="210" />
              <mxPoint x="320" y="310" />
              <mxPoint x="414" y="310" />
            </Array>
          </mxGeometry>
        </mxCell>
        <mxCell id="4hDfL8p4R7ruTAoEIvOj-87" value="F" style="edgeLabel;html=1;align=center;verticalAlign=middle;resizable=0;points=[];" vertex="1" connectable="0" parent="4hDfL8p4R7ruTAoEIvOj-70">
          <mxGeometry x="-0.8428" y="-1" relative="1" as="geometry">
            <mxPoint as="offset" />
          </mxGeometry>
        </mxCell>
        <mxCell id="4hDfL8p4R7ruTAoEIvOj-4" value="precios[0]=0" style="rhombus;whiteSpace=wrap;html=1;" vertex="1" parent="1">
          <mxGeometry x="370" y="180" width="90" height="60" as="geometry" />
        </mxCell>
        <mxCell id="4hDfL8p4R7ruTAoEIvOj-9" style="edgeStyle=orthogonalEdgeStyle;rounded=0;orthogonalLoop=1;jettySize=auto;html=1;entryX=0.5;entryY=0;entryDx=0;entryDy=0;exitX=0.5;exitY=1;exitDx=0;exitDy=0;" edge="1" parent="1" source="4hDfL8p4R7ruTAoEIvOj-5" target="4hDfL8p4R7ruTAoEIvOj-8">
          <mxGeometry relative="1" as="geometry">
            <Array as="points">
              <mxPoint x="539" y="310" />
              <mxPoint x="414" y="310" />
            </Array>
          </mxGeometry>
        </mxCell>
        <mxCell id="4hDfL8p4R7ruTAoEIvOj-5" value="&quot;Error carrito vacio, porfavor reincia el programa o añade un producto al carrito" style="shape=parallelogram;perimeter=parallelogramPerimeter;whiteSpace=wrap;html=1;fixedSize=1;" vertex="1" parent="1">
          <mxGeometry x="419" y="250" width="240" height="40" as="geometry" />
        </mxCell>
        <mxCell id="4hDfL8p4R7ruTAoEIvOj-10" style="edgeStyle=orthogonalEdgeStyle;rounded=0;orthogonalLoop=1;jettySize=auto;html=1;entryX=0.5;entryY=0;entryDx=0;entryDy=0;" edge="1" parent="1" source="4hDfL8p4R7ruTAoEIvOj-8" target="4hDfL8p4R7ruTAoEIvOj-13">
          <mxGeometry relative="1" as="geometry">
            <mxPoint x="414" y="470" as="targetPoint" />
          </mxGeometry>
        </mxCell>
        <mxCell id="4hDfL8p4R7ruTAoEIvOj-8" value="Escribir carrito[it]" style="shape=parallelogram;perimeter=parallelogramPerimeter;whiteSpace=wrap;html=1;fixedSize=1;" vertex="1" parent="1">
          <mxGeometry x="354" y="360" width="120" height="20" as="geometry" />
        </mxCell>
        <mxCell id="4hDfL8p4R7ruTAoEIvOj-11" value="" style="endArrow=none;html=1;rounded=0;" edge="1" parent="1">
          <mxGeometry width="50" height="50" relative="1" as="geometry">
            <mxPoint x="400" y="500" as="sourcePoint" />
            <mxPoint x="440" y="470" as="targetPoint" />
          </mxGeometry>
        </mxCell>
        <mxCell id="4hDfL8p4R7ruTAoEIvOj-12" value="" style="endArrow=none;html=1;rounded=0;" edge="1" parent="1">
          <mxGeometry width="50" height="50" relative="1" as="geometry">
            <mxPoint x="399" y="480" as="sourcePoint" />
            <mxPoint x="440" y="460" as="targetPoint" />
          </mxGeometry>
        </mxCell>
        <mxCell id="4hDfL8p4R7ruTAoEIvOj-18" style="edgeStyle=orthogonalEdgeStyle;rounded=0;orthogonalLoop=1;jettySize=auto;html=1;entryX=0.5;entryY=0;entryDx=0;entryDy=0;exitX=1;exitY=0.5;exitDx=0;exitDy=0;" edge="1" parent="1" source="4hDfL8p4R7ruTAoEIvOj-13" target="4hDfL8p4R7ruTAoEIvOj-14">
          <mxGeometry relative="1" as="geometry" />
        </mxCell>
        <mxCell id="4hDfL8p4R7ruTAoEIvOj-69" value="V" style="edgeLabel;html=1;align=center;verticalAlign=middle;resizable=0;points=[];" vertex="1" connectable="0" parent="4hDfL8p4R7ruTAoEIvOj-18">
          <mxGeometry x="0.0939" y="3" relative="1" as="geometry">
            <mxPoint x="-3" as="offset" />
          </mxGeometry>
        </mxCell>
        <mxCell id="4hDfL8p4R7ruTAoEIvOj-19" style="edgeStyle=orthogonalEdgeStyle;rounded=0;orthogonalLoop=1;jettySize=auto;html=1;entryX=0.5;entryY=0;entryDx=0;entryDy=0;exitX=0;exitY=0.5;exitDx=0;exitDy=0;" edge="1" parent="1" source="4hDfL8p4R7ruTAoEIvOj-13" target="4hDfL8p4R7ruTAoEIvOj-15">
          <mxGeometry relative="1" as="geometry" />
        </mxCell>
        <mxCell id="4hDfL8p4R7ruTAoEIvOj-68" value="F" style="edgeLabel;html=1;align=center;verticalAlign=middle;resizable=0;points=[];" vertex="1" connectable="0" parent="4hDfL8p4R7ruTAoEIvOj-19">
          <mxGeometry x="0.1792" y="1" relative="1" as="geometry">
            <mxPoint as="offset" />
          </mxGeometry>
        </mxCell>
        <mxCell id="4hDfL8p4R7ruTAoEIvOj-13" value="precios[ite] = 0" style="rhombus;whiteSpace=wrap;html=1;" vertex="1" parent="1">
          <mxGeometry x="349" y="503" width="130" height="40" as="geometry" />
        </mxCell>
        <mxCell id="4hDfL8p4R7ruTAoEIvOj-22" style="edgeStyle=orthogonalEdgeStyle;rounded=0;orthogonalLoop=1;jettySize=auto;html=1;exitX=0.5;exitY=1;exitDx=0;exitDy=0;entryX=0.5;entryY=0;entryDx=0;entryDy=0;" edge="1" parent="1" source="4hDfL8p4R7ruTAoEIvOj-14" target="4hDfL8p4R7ruTAoEIvOj-27">
          <mxGeometry relative="1" as="geometry">
            <mxPoint x="400" y="783" as="targetPoint" />
            <Array as="points">
              <mxPoint x="500" y="683" />
              <mxPoint x="400" y="683" />
            </Array>
          </mxGeometry>
        </mxCell>
        <mxCell id="4hDfL8p4R7ruTAoEIvOj-14" value="&quot;Vacio&quot;" style="shape=parallelogram;perimeter=parallelogramPerimeter;whiteSpace=wrap;html=1;fixedSize=1;" vertex="1" parent="1">
          <mxGeometry x="460" y="568" width="80" height="20" as="geometry" />
        </mxCell>
        <mxCell id="4hDfL8p4R7ruTAoEIvOj-20" style="edgeStyle=orthogonalEdgeStyle;rounded=0;orthogonalLoop=1;jettySize=auto;html=1;entryX=0.5;entryY=0;entryDx=0;entryDy=0;" edge="1" parent="1" source="4hDfL8p4R7ruTAoEIvOj-15" target="4hDfL8p4R7ruTAoEIvOj-16">
          <mxGeometry relative="1" as="geometry" />
        </mxCell>
        <mxCell id="4hDfL8p4R7ruTAoEIvOj-15" value="total = total +precios[ite]" style="rounded=0;whiteSpace=wrap;html=1;" vertex="1" parent="1">
          <mxGeometry x="260" y="560.5" width="140" height="35" as="geometry" />
        </mxCell>
        <mxCell id="4hDfL8p4R7ruTAoEIvOj-26" style="edgeStyle=orthogonalEdgeStyle;rounded=0;orthogonalLoop=1;jettySize=auto;html=1;exitX=0.5;exitY=1;exitDx=0;exitDy=0;entryX=0.5;entryY=0;entryDx=0;entryDy=0;" edge="1" parent="1" source="4hDfL8p4R7ruTAoEIvOj-16" target="4hDfL8p4R7ruTAoEIvOj-27">
          <mxGeometry relative="1" as="geometry">
            <mxPoint x="400" y="773" as="targetPoint" />
            <Array as="points">
              <mxPoint x="330" y="683" />
              <mxPoint x="400" y="683" />
            </Array>
          </mxGeometry>
        </mxCell>
        <mxCell id="4hDfL8p4R7ruTAoEIvOj-16" value="ra = ra + 1" style="rounded=0;whiteSpace=wrap;html=1;" vertex="1" parent="1">
          <mxGeometry x="295" y="620" width="70" height="30" as="geometry" />
        </mxCell>
        <mxCell id="4hDfL8p4R7ruTAoEIvOj-21" value="" style="endArrow=none;html=1;rounded=0;" edge="1" parent="1">
          <mxGeometry width="50" height="50" relative="1" as="geometry">
            <mxPoint x="380" y="720" as="sourcePoint" />
            <mxPoint x="414" y="701" as="targetPoint" />
          </mxGeometry>
        </mxCell>
        <mxCell id="4hDfL8p4R7ruTAoEIvOj-30" style="edgeStyle=orthogonalEdgeStyle;rounded=0;orthogonalLoop=1;jettySize=auto;html=1;entryX=0.5;entryY=0;entryDx=0;entryDy=0;" edge="1" parent="1" source="4hDfL8p4R7ruTAoEIvOj-27" target="4hDfL8p4R7ruTAoEIvOj-29">
          <mxGeometry relative="1" as="geometry" />
        </mxCell>
        <mxCell id="4hDfL8p4R7ruTAoEIvOj-27" value="Escribir &quot;&quot;" style="shape=parallelogram;perimeter=parallelogramPerimeter;whiteSpace=wrap;html=1;fixedSize=1;" vertex="1" parent="1">
          <mxGeometry x="360" y="722" width="80" height="20" as="geometry" />
        </mxCell>
        <mxCell id="4hDfL8p4R7ruTAoEIvOj-34" style="edgeStyle=orthogonalEdgeStyle;rounded=0;orthogonalLoop=1;jettySize=auto;html=1;" edge="1" parent="1" source="4hDfL8p4R7ruTAoEIvOj-29" target="4hDfL8p4R7ruTAoEIvOj-33">
          <mxGeometry relative="1" as="geometry" />
        </mxCell>
        <mxCell id="4hDfL8p4R7ruTAoEIvOj-29" value="Escribir &quot;El total del carrito es : &quot; + ConvertirATexto(total)" style="shape=parallelogram;perimeter=parallelogramPerimeter;whiteSpace=wrap;html=1;fixedSize=1;" vertex="1" parent="1">
          <mxGeometry x="230" y="763" width="340" height="20" as="geometry" />
        </mxCell>
        <mxCell id="4hDfL8p4R7ruTAoEIvOj-38" style="edgeStyle=orthogonalEdgeStyle;rounded=0;orthogonalLoop=1;jettySize=auto;html=1;entryX=0.5;entryY=0;entryDx=0;entryDy=0;" edge="1" parent="1">
          <mxGeometry relative="1" as="geometry">
            <mxPoint x="399" y="933" as="sourcePoint" />
            <mxPoint x="399" y="953" as="targetPoint" />
          </mxGeometry>
        </mxCell>
        <mxCell id="4hDfL8p4R7ruTAoEIvOj-31" value="Leer respuesta" style="shape=parallelogram;perimeter=parallelogramPerimeter;whiteSpace=wrap;html=1;fixedSize=1;" vertex="1" parent="1">
          <mxGeometry x="340" y="913" width="120" height="20" as="geometry" />
        </mxCell>
        <mxCell id="4hDfL8p4R7ruTAoEIvOj-36" style="edgeStyle=orthogonalEdgeStyle;rounded=0;orthogonalLoop=1;jettySize=auto;html=1;entryX=0.5;entryY=0;entryDx=0;entryDy=0;" edge="1" parent="1" source="4hDfL8p4R7ruTAoEIvOj-32" target="4hDfL8p4R7ruTAoEIvOj-31">
          <mxGeometry relative="1" as="geometry" />
        </mxCell>
        <mxCell id="4hDfL8p4R7ruTAoEIvOj-32" value="Escribir &quot;Quieres eliminar un producto de tu carrito? (si/no)&quot;" style="shape=parallelogram;perimeter=parallelogramPerimeter;whiteSpace=wrap;html=1;fixedSize=1;" vertex="1" parent="1">
          <mxGeometry x="230" y="863" width="340" height="20" as="geometry" />
        </mxCell>
        <mxCell id="4hDfL8p4R7ruTAoEIvOj-35" style="edgeStyle=orthogonalEdgeStyle;rounded=0;orthogonalLoop=1;jettySize=auto;html=1;" edge="1" parent="1" source="4hDfL8p4R7ruTAoEIvOj-33" target="4hDfL8p4R7ruTAoEIvOj-32">
          <mxGeometry relative="1" as="geometry" />
        </mxCell>
        <mxCell id="4hDfL8p4R7ruTAoEIvOj-33" value="Escribir &quot;&quot;" style="shape=parallelogram;perimeter=parallelogramPerimeter;whiteSpace=wrap;html=1;fixedSize=1;" vertex="1" parent="1">
          <mxGeometry x="360" y="813" width="80" height="20" as="geometry" />
        </mxCell>
        <mxCell id="4hDfL8p4R7ruTAoEIvOj-48" style="edgeStyle=orthogonalEdgeStyle;rounded=0;orthogonalLoop=1;jettySize=auto;html=1;entryX=0.5;entryY=0;entryDx=0;entryDy=0;exitX=0;exitY=0.5;exitDx=0;exitDy=0;" edge="1" parent="1" source="4hDfL8p4R7ruTAoEIvOj-37" target="4hDfL8p4R7ruTAoEIvOj-39">
          <mxGeometry relative="1" as="geometry">
            <mxPoint x="322" y="973" as="sourcePoint" />
          </mxGeometry>
        </mxCell>
        <mxCell id="4hDfL8p4R7ruTAoEIvOj-89" value="F" style="edgeLabel;html=1;align=center;verticalAlign=middle;resizable=0;points=[];" vertex="1" connectable="0" parent="4hDfL8p4R7ruTAoEIvOj-48">
          <mxGeometry x="-0.2386" y="2" relative="1" as="geometry">
            <mxPoint x="1" as="offset" />
          </mxGeometry>
        </mxCell>
        <mxCell id="4hDfL8p4R7ruTAoEIvOj-50" style="edgeStyle=orthogonalEdgeStyle;rounded=0;orthogonalLoop=1;jettySize=auto;html=1;entryX=0.5;entryY=0;entryDx=0;entryDy=0;exitX=1;exitY=0.5;exitDx=0;exitDy=0;" edge="1" parent="1" source="4hDfL8p4R7ruTAoEIvOj-37" target="4hDfL8p4R7ruTAoEIvOj-41">
          <mxGeometry relative="1" as="geometry" />
        </mxCell>
        <mxCell id="4hDfL8p4R7ruTAoEIvOj-90" value="V" style="edgeLabel;html=1;align=center;verticalAlign=middle;resizable=0;points=[];" vertex="1" connectable="0" parent="4hDfL8p4R7ruTAoEIvOj-50">
          <mxGeometry x="-0.0363" y="-2" relative="1" as="geometry">
            <mxPoint x="1" as="offset" />
          </mxGeometry>
        </mxCell>
        <mxCell id="4hDfL8p4R7ruTAoEIvOj-37" value="respuesta = &quot;si&quot;" style="rhombus;whiteSpace=wrap;html=1;" vertex="1" parent="1">
          <mxGeometry x="340" y="953" width="120" height="40" as="geometry" />
        </mxCell>
        <mxCell id="4hDfL8p4R7ruTAoEIvOj-49" style="edgeStyle=orthogonalEdgeStyle;rounded=0;orthogonalLoop=1;jettySize=auto;html=1;entryX=0.5;entryY=0;entryDx=0;entryDy=0;" edge="1" parent="1" source="4hDfL8p4R7ruTAoEIvOj-39" target="4hDfL8p4R7ruTAoEIvOj-40">
          <mxGeometry relative="1" as="geometry" />
        </mxCell>
        <mxCell id="4hDfL8p4R7ruTAoEIvOj-39" value="Esperar Tecla" style="rounded=0;whiteSpace=wrap;html=1;" vertex="1" parent="1">
          <mxGeometry x="262" y="1003" width="80" height="20" as="geometry" />
        </mxCell>
        <mxCell id="4hDfL8p4R7ruTAoEIvOj-67" style="edgeStyle=orthogonalEdgeStyle;rounded=0;orthogonalLoop=1;jettySize=auto;html=1;exitX=0.5;exitY=1;exitDx=0;exitDy=0;" edge="1" parent="1">
          <mxGeometry relative="1" as="geometry">
            <mxPoint x="302" y="1072" as="sourcePoint" />
            <mxPoint x="398" y="1353" as="targetPoint" />
            <Array as="points">
              <mxPoint x="302" y="1325" />
              <mxPoint x="398" y="1325" />
            </Array>
          </mxGeometry>
        </mxCell>
        <mxCell id="4hDfL8p4R7ruTAoEIvOj-40" value="Limpiar Pantalla" style="rounded=0;whiteSpace=wrap;html=1;" vertex="1" parent="1">
          <mxGeometry x="252" y="1053" width="100" height="20" as="geometry" />
        </mxCell>
        <mxCell id="4hDfL8p4R7ruTAoEIvOj-51" style="edgeStyle=orthogonalEdgeStyle;rounded=0;orthogonalLoop=1;jettySize=auto;html=1;entryX=0.5;entryY=0;entryDx=0;entryDy=0;" edge="1" parent="1" source="4hDfL8p4R7ruTAoEIvOj-41" target="4hDfL8p4R7ruTAoEIvOj-42">
          <mxGeometry relative="1" as="geometry" />
        </mxCell>
        <mxCell id="4hDfL8p4R7ruTAoEIvOj-41" value="Escribir &quot;Que producto quieres eliminar? (orden de 0 - cantidad de productos-1)" style="shape=parallelogram;perimeter=parallelogramPerimeter;whiteSpace=wrap;html=1;fixedSize=1;" vertex="1" parent="1">
          <mxGeometry x="400" y="1003" width="250" height="40" as="geometry" />
        </mxCell>
        <mxCell id="4hDfL8p4R7ruTAoEIvOj-53" style="edgeStyle=orthogonalEdgeStyle;rounded=0;orthogonalLoop=1;jettySize=auto;html=1;entryX=0.5;entryY=0;entryDx=0;entryDy=0;" edge="1" parent="1" source="4hDfL8p4R7ruTAoEIvOj-42" target="4hDfL8p4R7ruTAoEIvOj-46">
          <mxGeometry relative="1" as="geometry" />
        </mxCell>
        <mxCell id="4hDfL8p4R7ruTAoEIvOj-42" value="Leer ProductoE" style="shape=parallelogram;perimeter=parallelogramPerimeter;whiteSpace=wrap;html=1;fixedSize=1;" vertex="1" parent="1">
          <mxGeometry x="465" y="1063" width="120" height="20" as="geometry" />
        </mxCell>
        <mxCell id="4hDfL8p4R7ruTAoEIvOj-59" style="edgeStyle=orthogonalEdgeStyle;rounded=0;orthogonalLoop=1;jettySize=auto;html=1;entryX=0.5;entryY=0;entryDx=0;entryDy=0;" edge="1" parent="1" source="4hDfL8p4R7ruTAoEIvOj-45" target="4hDfL8p4R7ruTAoEIvOj-57">
          <mxGeometry relative="1" as="geometry" />
        </mxCell>
        <mxCell id="4hDfL8p4R7ruTAoEIvOj-45" value="Escribir &quot;Producto eliminado con exito del carrito" style="shape=parallelogram;perimeter=parallelogramPerimeter;whiteSpace=wrap;html=1;fixedSize=1;" vertex="1" parent="1">
          <mxGeometry x="380" y="1203" width="290" height="20" as="geometry" />
        </mxCell>
        <mxCell id="4hDfL8p4R7ruTAoEIvOj-55" style="edgeStyle=orthogonalEdgeStyle;rounded=0;orthogonalLoop=1;jettySize=auto;html=1;entryX=0.5;entryY=0;entryDx=0;entryDy=0;" edge="1" parent="1" source="4hDfL8p4R7ruTAoEIvOj-46" target="4hDfL8p4R7ruTAoEIvOj-54">
          <mxGeometry relative="1" as="geometry" />
        </mxCell>
        <mxCell id="4hDfL8p4R7ruTAoEIvOj-46" value="precios[ProductosE] = 0" style="rounded=0;whiteSpace=wrap;html=1;" vertex="1" parent="1">
          <mxGeometry x="460" y="1103" width="130" height="30" as="geometry" />
        </mxCell>
        <mxCell id="4hDfL8p4R7ruTAoEIvOj-56" style="edgeStyle=orthogonalEdgeStyle;rounded=0;orthogonalLoop=1;jettySize=auto;html=1;entryX=0.5;entryY=0;entryDx=0;entryDy=0;" edge="1" parent="1" source="4hDfL8p4R7ruTAoEIvOj-54" target="4hDfL8p4R7ruTAoEIvOj-45">
          <mxGeometry relative="1" as="geometry" />
        </mxCell>
        <mxCell id="4hDfL8p4R7ruTAoEIvOj-54" value="precios[ProductosE] = &quot;vacio&quot;" style="rounded=0;whiteSpace=wrap;html=1;" vertex="1" parent="1">
          <mxGeometry x="440" y="1153" width="170" height="30" as="geometry" />
        </mxCell>
        <mxCell id="4hDfL8p4R7ruTAoEIvOj-60" style="edgeStyle=orthogonalEdgeStyle;rounded=0;orthogonalLoop=1;jettySize=auto;html=1;entryX=0.5;entryY=0;entryDx=0;entryDy=0;" edge="1" parent="1" source="4hDfL8p4R7ruTAoEIvOj-57" target="4hDfL8p4R7ruTAoEIvOj-58">
          <mxGeometry relative="1" as="geometry" />
        </mxCell>
        <mxCell id="4hDfL8p4R7ruTAoEIvOj-57" value="Esperar Tecla" style="rounded=0;whiteSpace=wrap;html=1;" vertex="1" parent="1">
          <mxGeometry x="485" y="1243" width="80" height="20" as="geometry" />
        </mxCell>
        <mxCell id="4hDfL8p4R7ruTAoEIvOj-65" style="edgeStyle=orthogonalEdgeStyle;rounded=0;orthogonalLoop=1;jettySize=auto;html=1;entryX=0.5;entryY=0;entryDx=0;entryDy=0;exitX=0.5;exitY=1;exitDx=0;exitDy=0;" edge="1" parent="1">
          <mxGeometry relative="1" as="geometry">
            <mxPoint x="524" y="1307" as="sourcePoint" />
            <mxPoint x="398" y="1355" as="targetPoint" />
            <Array as="points">
              <mxPoint x="524" y="1325" />
              <mxPoint x="398" y="1325" />
            </Array>
          </mxGeometry>
        </mxCell>
        <mxCell id="4hDfL8p4R7ruTAoEIvOj-58" value="Limpiar Pantalla" style="rounded=0;whiteSpace=wrap;html=1;" vertex="1" parent="1">
          <mxGeometry x="474" y="1283" width="100" height="20" as="geometry" />
        </mxCell>
        <mxCell id="4hDfL8p4R7ruTAoEIvOj-66" style="edgeStyle=orthogonalEdgeStyle;rounded=0;orthogonalLoop=1;jettySize=auto;html=1;entryX=0.5;entryY=0;entryDx=0;entryDy=0;" edge="1" parent="1" source="4hDfL8p4R7ruTAoEIvOj-61" target="4hDfL8p4R7ruTAoEIvOj-63">
          <mxGeometry relative="1" as="geometry" />
        </mxCell>
        <mxCell id="4hDfL8p4R7ruTAoEIvOj-99" value="F" style="edgeLabel;html=1;align=center;verticalAlign=middle;resizable=0;points=[];" vertex="1" connectable="0" parent="4hDfL8p4R7ruTAoEIvOj-66">
          <mxGeometry x="-0.1561" y="-1" relative="1" as="geometry">
            <mxPoint as="offset" />
          </mxGeometry>
        </mxCell>
        <mxCell id="4hDfL8p4R7ruTAoEIvOj-96" style="edgeStyle=orthogonalEdgeStyle;rounded=0;orthogonalLoop=1;jettySize=auto;html=1;entryX=0;entryY=0.5;entryDx=0;entryDy=0;" edge="1" parent="1" source="4hDfL8p4R7ruTAoEIvOj-61" target="4hDfL8p4R7ruTAoEIvOj-92">
          <mxGeometry relative="1" as="geometry">
            <Array as="points">
              <mxPoint x="40" y="1376" />
              <mxPoint x="40" y="89" />
            </Array>
          </mxGeometry>
        </mxCell>
        <mxCell id="4hDfL8p4R7ruTAoEIvOj-97" value="V" style="edgeLabel;html=1;align=center;verticalAlign=middle;resizable=0;points=[];" vertex="1" connectable="0" parent="4hDfL8p4R7ruTAoEIvOj-96">
          <mxGeometry x="-0.9788" y="-1" relative="1" as="geometry">
            <mxPoint as="offset" />
          </mxGeometry>
        </mxCell>
        <mxCell id="4hDfL8p4R7ruTAoEIvOj-61" value="retroceder=verdadero" style="rhombus;whiteSpace=wrap;html=1;" vertex="1" parent="1">
          <mxGeometry x="323" y="1351" width="150" height="50" as="geometry" />
        </mxCell>
        <mxCell id="4hDfL8p4R7ruTAoEIvOj-63" value="FIN" style="ellipse;whiteSpace=wrap;html=1;" vertex="1" parent="1">
          <mxGeometry x="345.5" y="1445" width="105" height="60" as="geometry" />
        </mxCell>
        <mxCell id="4hDfL8p4R7ruTAoEIvOj-72" value="para it = 0 Hasta i-1 Hacer" style="ellipse;whiteSpace=wrap;html=1;" vertex="1" parent="1">
          <mxGeometry x="275" y="390" width="90" height="50" as="geometry" />
        </mxCell>
        <mxCell id="4hDfL8p4R7ruTAoEIvOj-75" value="" style="endArrow=classic;html=1;rounded=0;exitX=0.5;exitY=0;exitDx=0;exitDy=0;" edge="1" parent="1" source="4hDfL8p4R7ruTAoEIvOj-72">
          <mxGeometry width="50" height="50" relative="1" as="geometry">
            <mxPoint x="320" y="380" as="sourcePoint" />
            <mxPoint x="410" y="340" as="targetPoint" />
            <Array as="points">
              <mxPoint x="320" y="340" />
            </Array>
          </mxGeometry>
        </mxCell>
        <mxCell id="4hDfL8p4R7ruTAoEIvOj-77" value="" style="endArrow=classic;html=1;rounded=0;" edge="1" parent="1">
          <mxGeometry width="50" height="50" relative="1" as="geometry">
            <mxPoint x="410" y="470" as="sourcePoint" />
            <mxPoint x="320" y="440" as="targetPoint" />
            <Array as="points">
              <mxPoint x="320" y="470" />
            </Array>
          </mxGeometry>
        </mxCell>
        <mxCell id="4hDfL8p4R7ruTAoEIvOj-79" style="edgeStyle=orthogonalEdgeStyle;rounded=0;orthogonalLoop=1;jettySize=auto;html=1;exitX=0.5;exitY=0;exitDx=0;exitDy=0;" edge="1" parent="1" source="4hDfL8p4R7ruTAoEIvOj-78">
          <mxGeometry relative="1" as="geometry">
            <mxPoint x="410" y="490" as="targetPoint" />
            <Array as="points">
              <mxPoint x="195" y="490" />
            </Array>
          </mxGeometry>
        </mxCell>
        <mxCell id="4hDfL8p4R7ruTAoEIvOj-78" value="para ite = ra Hasta i-1 Hacer" style="ellipse;whiteSpace=wrap;html=1;" vertex="1" parent="1">
          <mxGeometry x="150" y="560" width="90" height="50" as="geometry" />
        </mxCell>
        <mxCell id="4hDfL8p4R7ruTAoEIvOj-80" value="" style="endArrow=classic;html=1;rounded=0;entryX=0.5;entryY=1;entryDx=0;entryDy=0;" edge="1" parent="1" target="4hDfL8p4R7ruTAoEIvOj-78">
          <mxGeometry width="50" height="50" relative="1" as="geometry">
            <mxPoint x="400" y="710" as="sourcePoint" />
            <mxPoint x="160" y="620" as="targetPoint" />
            <Array as="points">
              <mxPoint x="195" y="710" />
            </Array>
          </mxGeometry>
        </mxCell>
        <mxCell id="4hDfL8p4R7ruTAoEIvOj-86" value="" style="endArrow=none;html=1;rounded=0;" edge="1" parent="1">
          <mxGeometry width="50" height="50" relative="1" as="geometry">
            <mxPoint x="398" y="355" as="sourcePoint" />
            <mxPoint x="428" y="325" as="targetPoint" />
          </mxGeometry>
        </mxCell>
        <mxCell id="4hDfL8p4R7ruTAoEIvOj-93" style="edgeStyle=orthogonalEdgeStyle;rounded=0;orthogonalLoop=1;jettySize=auto;html=1;entryX=0.5;entryY=0;entryDx=0;entryDy=0;" edge="1" parent="1">
          <mxGeometry relative="1" as="geometry">
            <mxPoint x="416" y="104" as="sourcePoint" />
            <mxPoint x="415" y="130" as="targetPoint" />
          </mxGeometry>
        </mxCell>
        <mxCell id="4hDfL8p4R7ruTAoEIvOj-92" value="codigo anterior..." style="rounded=0;whiteSpace=wrap;html=1;" vertex="1" parent="1">
          <mxGeometry x="355" y="74" width="120" height="30" as="geometry" />
        </mxCell>
      </root>
    </mxGraphModel>
  </diagram>
</mxfile>
